{"title":"Sherlock.Holmes.2010.DVDRip.XviD-SPRiNTER","uid":5332066,"size":742888228,"categoryP":"video","categoryS":"movies","magnet":"?xt=urn:btih:567c8e003c7ad647a952fb1393b4a7555b561279&amp;dn=Sherlock.Holmes.2010.DVDRip.XviD-SPRiNTER&amp;tr=udp%3A%2F%2Ftracker.openbittorrent.com%3A80&amp;tr=udp%3A%2F%2Fopen.demonii.com%3A1337&amp;tr=udp%3A%2F%2Ftracker.coppersurfer.tk%3A6969&amp;tr=udp%3A%2F%2Fexodus.desync.com%3A6969","seeders":1,"leechers":0,"uploader":".BONE.","files":4,"time":1265204542,"description":"Plot: Sherlock Holmes and Watson are on the trail\nof a criminal and scientific mastermind who seems\nto control monsters and creations which defy belief.\n\n\n\nRelease notes:\n\nEnjoy!\n\nFormat : AVI\nFormat/Info : Audio Video Interleave\nFile size : 702 MiB\nDuration : 1h 29mn\nOverall bit rate : 1 101 Kbps\nWriting application : VirtualDubMod 1.5.10.2 (build 2540/release)\nWriting library : VirtualDubMod build 2540/release\n\nVideo:\n\nID : 0\nFormat : MPEG-4 Visual\nFormat profile : AdvancedSimple@L5\nFormat settings, BVOP : Yes\nFormat settings, QPel : No\nFormat settings, GMC : No warppoints\nFormat settings, Matrix : Default (H.263)\nCodec ID : XVID\nCodec ID/Hint : XviD\nDuration : 1h 29mn\nBit rate : 985 Kbps\nWidth : 576 pixels\nHeight : 320 pixels\nDisplay aspect ratio : 16:9\nFrame rate : 23.976 fps\nResolution : 24 bits\nColorimetry : 4:2:0\nScan type : Progressive\nBits/(Pixel*Frame) : 0.223\nStream size : 628 MiB (89%)\nWriting library : XviD 1.2.1 (UTC 2008-12-04)\n\nAudio:\n\nID : 1\nFormat : MPEG Audio\nFormat version : Version 1\nFormat profile : Layer 3\nFormat_Settings_Mode : Joint stereo / MS Stereo\nCodec ID : 55\nCodec ID/Hint : MP3\nDuration : 1h 29mn\nBit rate mode : Variable\nBit rate : 103 Kbps\nMinimum bit rate : 32.0 Kbps\nChannel(s) : 2 channels\nSampling rate : 48.0 KHz\nResolution : 16 bits\nStream size : 65.9 MiB (9%)\nAlignment : Aligned on interleaves\nInterleave, duration : 24 ms (0.58 video frame)\nInterleave, preload duration : 178 ms\nWriting library : LAME3.95\nEncoding settings : -m j -V 4 -q 2 -lowpass 18 --vbr-old -b 32","torrent":{"xt":"urn:btih:567c8e003c7ad647a952fb1393b4a7555b561279","amp;dn":"Sherlock.Holmes.2010.DVDRip.XviD-SPRiNTER","amp;tr":["udp%3A%2F%2Ftracker.openbittorrent.com%3A80","udp%3A%2F%2Fopen.demonii.com%3A1337","udp%3A%2F%2Ftracker.coppersurfer.tk%3A6969","udp%3A%2F%2Fexodus.desync.com%3A6969"],"infoHash":"567c8e003c7ad647a952fb1393b4a7555b561279","infoHashBuffer":{"type":"Buffer","data":[86,124,142,0,60,122,214,71,169,82,251,19,147,180,167,85,91,86,18,121]},"announce":[],"urlList":[]}}